<mxfile host="app.diagrams.net" modified="2023-03-16T07:50:12.476Z" agent="5.0 (X11)" etag="ZQCEADTsMmyrY9b8BmAw" version="21.0.6" type="github">
  <diagram name="Page-1" id="FVhqn988G8daz6nEue9V">
    <mxGraphModel dx="1050" dy="545" grid="1" gridSize="10" guides="1" tooltips="1" connect="1" arrows="1" fold="1" page="1" pageScale="1" pageWidth="850" pageHeight="1100" math="0" shadow="0">
      <root>
        <mxCell id="0" />
        <mxCell id="1" parent="0" />
      </root>
    </mxGraphModel>
  </diagram>
</mxfile>
